# xmcd CD database file
#
# Track frame offsets:
#	150
#	22008
#	39788
#	55988
#	70780
#	86988
#	106143
#	125070
#	144733
#	163632
#	182732
#	203317
#	221324
#	242216
#	258286
#	271983
#	293213
#	318693
#	338681
#
# Disc length: 4743 seconds
#
# Revision: 1
# Processed by: cddbd v1.5.2PL0 Copyright (c) Steve Scherf et al.
# Submitted via: CDex 1.51
#
DISCID=19128513
DTITLE=Willy DeVille - Live at Rockpalast 2008
DYEAR=2008
DGENRE=Blues
TTITLE0=Loup Garou
TTITLE1=So Sir Real
TTITLE2=Chieva
TTITLE3=Even While I Sleep
TTITLE4=Spanish Stroll
TTITLE5=Muddy Waters Rose Out Of The Mississippi Mud
TTITLE6=Heart And Soul
TTITLE7=You Got The World In Your Hands
TTITLE8=Bacon Fat
TTITLE9=White Girl Trash
TTITLE10=Hey Joe
TTITLE11=Betty And Dupree
TTITLE12=Venus Of Avenue D.
TTITLE13=Demasiado Corazon
TTITLE14=Savoir Faire
TTITLE15=Cadillac Walk
TTITLE16=Mixed Up, Shook Up Girl
TTITLE17=Steady Drivin' Man
TTITLE18=Just Your Friends
EXTD=YEAR: 2008
EXTT0=
EXTT1=
EXTT2=
EXTT3=
EXTT4=
EXTT5=
EXTT6=
EXTT7=
EXTT8=
EXTT9=
EXTT10=
EXTT11=
EXTT12=
EXTT13=
EXTT14=
EXTT15=
EXTT16=
EXTT17=
EXTT18=
PLAYORDER=
